<svg xmlns="http://www.w3.org/2000/svg" viewBox="0 0 500 500" fill="none">
  <!-- Background -->
  <rect width="500" height="500" fill="transparent"/>
  
  <!-- Beetle horns/mandibles (gray) -->
  <path d="M150 80C130 60 110 50 90 45C70 40 50 45 40 60C35 70 40 80 50 85" 
        stroke="#999" stroke-width="8" fill="none" stroke-linecap="round"/>
  <path d="M350 80C370 60 390 50 410 45C430 40 450 45 460 60C465 70 460 80 450 85" 
        stroke="#999" stroke-width="8" fill="none" stroke-linecap="round"/>
  
  <!-- Large curved horns -->
  <path d="M180 100C160 70 140 40 120 20C110 10 100 5 90 5C85 5 80 10 80 20C80 40 100 70 130 100" 
        fill="#888" stroke="#666" stroke-width="2"/>
  <path d="M320 100C340 70 360 40 380 20C390 10 400 5 410 5C415 5 420 10 420 20C420 40 400 70 370 100" 
        fill="#888" stroke="#666" stroke-width="2"/>
  
  <!-- Antennae -->
  <path d="M200 120C190 100 180 80 170 60" stroke="#666" stroke-width="4" stroke-linecap="round"/>
  <path d="M300 120C310 100 320 80 330 60" stroke="#666" stroke-width="4" stroke-linecap="round"/>
  
  <!-- Head (dark gray gradient) -->
  <defs>
    <radialGradient id="headGradient" cx="50%" cy="40%">
      <stop offset="0%" stop-color="#666"/>
      <stop offset="100%" stop-color="#333"/>
    </radialGradient>
  </defs>
  <ellipse cx="250" cy="160" rx="70" ry="50" fill="url(#headGradient)"/>
  
  <!-- Eyes (yellow) -->
  <circle cx="230" cy="150" r="8" fill="#FFD700">
    <animate attributeName="r" values="8;10;8" dur="3s" repeatCount="indefinite"/>
  </circle>
  <circle cx="270" cy="150" r="8" fill="#FFD700">
    <animate attributeName="r" values="8;10;8" dur="3s" repeatCount="indefinite"/>
  </circle>
  
  <!-- Thorax (black) -->
  <ellipse cx="250" cy="220" rx="55" ry="35" fill="#000"/>
  
  <!-- Blue circuit patterns on thorax -->
  <path d="M220 210 Q235 215 250 210 Q265 215 280 210" 
        stroke="#4A9EFF" stroke-width="3" fill="none"/>
  <circle cx="225" cy="220" r="3" fill="#4A9EFF"/>
  <circle cx="275" cy="220" r="3" fill="#4A9EFF"/>
  
  <!-- Abdomen (black with gradient) -->
  <defs>
    <linearGradient id="abdomenGradient" x1="0%" y1="0%" x2="0%" y2="100%">
      <stop offset="0%" stop-color="#000"/>
      <stop offset="100%" stop-color="#111"/>
    </linearGradient>
  </defs>
  <ellipse cx="250" cy="320" rx="80" ry="100" fill="url(#abdomenGradient)"/>
  
  <!-- Main blue TRON lines on abdomen -->
  <rect x="235" y="250" width="5" height="120" fill="#4A9EFF" opacity="0.9"/>
  <rect x="260" y="250" width="5" height="120" fill="#4A9EFF" opacity="0.9"/>
  
  <!-- Curved blue patterns -->
  <path d="M200 280 Q225 290 250 280 Q275 290 300 280" 
        stroke="#4A9EFF" stroke-width="4" fill="none" opacity="0.8"/>
  <path d="M190 320 Q220 330 250 320 Q280 330 310 320" 
        stroke="#4A9EFF" stroke-width="3" fill="none" opacity="0.7"/>
  
  <!-- Blue nodes/circuits -->
  <circle cx="210" cy="290" r="4" fill="#4A9EFF"/>
  <circle cx="290" cy="290" r="4" fill="#4A9EFF"/>
  <circle cx="220" cy="330" r="3" fill="#4A9EFF" opacity="0.8"/>
  <circle cx="280" cy="330" r="3" fill="#4A9EFF" opacity="0.8"/>
  <circle cx="250" cy="310" r="5" fill="#4A9EFF" opacity="0.6"/>
  
  <!-- Additional tech patterns -->
  <path d="M220 350 L230 360 L240 350 L250 360 L260 350 L270 360 L280 350" 
        stroke="#4A9EFF" stroke-width="2" fill="none" opacity="0.6"/>
  
  <!-- Legs (black with joints) -->
  <!-- Left legs -->
  <path d="M180 200 L140 230 L110 270 L90 310" 
        stroke="#000" stroke-width="12" fill="none" stroke-linecap="round"/>
  <circle cx="140" cy="230" r="4" fill="#333"/>
  <circle cx="110" cy="270" r="4" fill="#333"/>
  
  <path d="M180 240 L140 270 L110 310 L90 350" 
        stroke="#000" stroke-width="10" fill="none" stroke-linecap="round"/>
  <circle cx="140" cy="270" r="3" fill="#333"/>
  <circle cx="110" cy="310" r="3" fill="#333"/>
  
  <path d="M180 280 L140 310 L110 350 L95 390" 
        stroke="#000" stroke-width="8" fill="none" stroke-linecap="round"/>
  <circle cx="140" cy="310" r="3" fill="#333"/>
  
  <!-- Right legs -->
  <path d="M320 200 L360 230 L390 270 L410 310" 
        stroke="#000" stroke-width="12" fill="none" stroke-linecap="round"/>
  <circle cx="360" cy="230" r="4" fill="#333"/>
  <circle cx="390" cy="270" r="4" fill="#333"/>
  
  <path d="M320 240 L360 270 L390 310 L410 350" 
        stroke="#000" stroke-width="10" fill="none" stroke-linecap="round"/>
  <circle cx="360" cy="270" r="3" fill="#333"/>
  <circle cx="390" cy="310" r="3" fill="#333"/>
  
  <path d="M320 280 L360 310 L390 350 L405 390" 
        stroke="#000" stroke-width="8" fill="none" stroke-linecap="round"/>
  <circle cx="360" cy="310" r="3" fill="#333"/>
  
  <!-- Wing covers (elytra) with metallic sheen -->
  <defs>
    <linearGradient id="wingGradient" x1="0%" y1="0%" x2="100%" y2="100%">
      <stop offset="0%" stop-color="#444"/>
      <stop offset="50%" stop-color="#222"/>
      <stop offset="100%" stop-color="#000"/>
    </linearGradient>
  </defs>
  <ellipse cx="210" cy="250" rx="30" ry="50" fill="url(#wingGradient)" opacity="0.9"/>
  <ellipse cx="290" cy="250" rx="30" ry="50" fill="url(#wingGradient)" opacity="0.9"/>
  
  <!-- Wing highlights -->
  <path d="M195 230 L195 270" stroke="#4A9EFF" stroke-width="3" opacity="0.7"/>
  <path d="M305 230 L305 270" stroke="#4A9EFF" stroke-width="3" opacity="0.7"/>
  
  <style>
    @media (prefers-color-scheme: dark) {
      circle[fill="#FFD700"] { 
        filter: drop-shadow(0 0 8px #FFD700);
      }
      circle[fill="#4A9EFF"], rect[fill="#4A9EFF"], path[stroke="#4A9EFF"] {
        filter: drop-shadow(0 0 4px #4A9EFF);
      }
    }
  </style>
</svg>