<svg xmlns="http://www.w3.org/2000/svg" viewBox="0 0 128 128" fill="none">
  <!-- Beetle antennae and horns (gray) -->
  <path d="M25 20C30 15 40 12 50 15C55 17 60 20 65 25" stroke="#888" stroke-width="3" fill="none"/>
  <path d="M103 20C98 15 88 12 78 15C73 17 68 20 63 25" stroke="#888" stroke-width="3" fill="none"/>
  <path d="M45 25C50 15 55 8 60 5C65 8 70 15 75 25" stroke="#999" stroke-width="2" fill="none"/>
  <path d="M95 35C100 25 105 18 110 15C105 18 100 25 95 35" stroke="#AAA" stroke-width="2" fill="none"/>
  <path d="M33 35C28 25 23 18 18 15C23 18 28 25 33 35" stroke="#AAA" stroke-width="2" fill="none"/>
  
  <!-- Beetle head (dark gray) -->
  <ellipse cx="64" cy="38" rx="18" ry="12" fill="#555"/>
  
  <!-- Beetle eye (yellow) -->
  <circle cx="70" cy="35" r="3" fill="#FFD700"/>
  
  <!-- Beetle thorax (black with blue circuit patterns) -->
  <ellipse cx="64" cy="55" rx="15" ry="18" fill="#000"/>
  <!-- Blue circuit lines on thorax -->
  <path d="M54 48L58 52L62 48L66 52L70 48L74 52" stroke="#4A9EFF" stroke-width="1.5" fill="none"/>
  <circle cx="57" cy="50" r="1.5" fill="#4A9EFF"/>
  <circle cx="71" cy="50" r="1.5" fill="#4A9EFF"/>
  
  <!-- Beetle abdomen (black with blue tech patterns) -->
  <ellipse cx="64" cy="80" rx="20" ry="25" fill="#000"/>
  
  <!-- Main blue stripes -->
  <rect x="58" y="65" width="3" height="30" fill="#4A9EFF"/>
  <rect x="67" y="65" width="3" height="30" fill="#4A9EFF"/>
  
  <!-- Blue circuit patterns on abdomen -->
  <path d="M50 70C55 75 60 80 64 85C68 80 73 75 78 70" stroke="#4A9EFF" stroke-width="2" fill="none"/>
  <circle cx="54" cy="72" r="1.5" fill="#4A9EFF"/>
  <circle cx="74" cy="72" r="1.5" fill="#4A9EFF"/>
  <circle cx="58" cy="82" r="1" fill="#4A9EFF"/>
  <circle cx="70" cy="82" r="1" fill="#4A9EFF"/>
  
  <!-- Additional tech pattern -->
  <path d="M52 85L56 89L60 85L64 89L68 85L72 89L76 85" stroke="#4A9EFF" stroke-width="1" fill="none"/>
  
  <!-- Beetle legs -->
  <path d="M42 50L32 60L25 70" stroke="#000" stroke-width="3" fill="none"/>
  <path d="M42 60L32 70L25 80" stroke="#000" stroke-width="3" fill="none"/>
  <path d="M42 70L32 80L28 90" stroke="#000" stroke-width="3" fill="none"/>
  
  <path d="M86 50L96 60L103 70" stroke="#000" stroke-width="3" fill="none"/>
  <path d="M86 60L96 70L103 80" stroke="#000" stroke-width="3" fill="none"/>
  <path d="M86 70L96 80L100 90" stroke="#000" stroke-width="3" fill="none"/>
  
  <!-- Wing covers (elytra) with tech details -->
  <ellipse cx="56" cy="60" rx="8" ry="15" fill="#333"/>
  <ellipse cx="72" cy="60" rx="8" ry="15" fill="#333"/>
  <path d="M52 50L52 70" stroke="#4A9EFF" stroke-width="1.5"/>
  <path d="M76 50L76 70" stroke="#4A9EFF" stroke-width="1.5"/>
  
  <style>
    @media (prefers-color-scheme: dark) {
      circle[fill="#FFD700"] { fill: #FFD700; }
      path[stroke="#888"], path[stroke="#999"], path[stroke="#AAA"] { 
        stroke: #BBB; 
      }
      ellipse[fill="#555"] { fill: #666; }
    }
  </style>
</svg>