<svg xmlns="http://www.w3.org/2000/svg" viewBox="0 0 400 400" fill="none">
  <!-- Beetle antennae (gray) -->
  <path d="M150 120C140 100 120 80 100 70C85 62 70 65 60 75" stroke="#888" stroke-width="8" fill="none"/>
  <path d="M250 120C260 100 280 80 300 70C315 62 330 65 340 75" stroke="#888" stroke-width="8" fill="none"/>
  
  <!-- Beetle head (dark gray) -->
  <ellipse cx="200" cy="140" rx="50" ry="35" fill="#444"/>
  
  <!-- Beetle eye (yellow) -->
  <circle cx="220" cy="130" r="8" fill="#FFD700"/>
  
  <!-- Beetle thorax (black with blue stripes) -->
  <ellipse cx="200" cy="200" rx="40" ry="50" fill="#000"/>
  <rect x="185" y="175" width="8" height="50" fill="#4A9EFF"/>
  <rect x="207" y="175" width="8" height="50" fill="#4A9EFF"/>
  
  <!-- Beetle abdomen (black with blue pattern) -->
  <ellipse cx="200" cy="280" rx="60" ry="80" fill="#000"/>
  <path d="M160 240C170 250 180 260 190 280C200 300 210 320 220 340C230 320 240 300 250 280C260 260 270 250 280 240" stroke="#4A9EFF" stroke-width="6" fill="none"/>
  <circle cx="170" cy="260" r="4" fill="#4A9EFF"/>
  <circle cx="230" cy="260" r="4" fill="#4A9EFF"/>
  <circle cx="180" cy="300" r="3" fill="#4A9EFF"/>
  <circle cx="220" cy="300" r="3" fill="#4A9EFF"/>
  
  <!-- Beetle legs -->
  <path d="M140 190L100 220L80 240" stroke="#000" stroke-width="6" fill="none"/>
  <path d="M140 220L110 250L90 270" stroke="#000" stroke-width="6" fill="none"/>
  <path d="M140 250L100 280L85 300" stroke="#000" stroke-width="6" fill="none"/>
  
  <path d="M260 190L300 220L320 240" stroke="#000" stroke-width="6" fill="none"/>
  <path d="M260 220L290 250L310 270" stroke="#000" stroke-width="6" fill="none"/>
  <path d="M260 250L300 280L315 300" stroke="#000" stroke-width="6" fill="none"/>
  
  <!-- Wing covers with blue accents -->
  <ellipse cx="180" cy="220" rx="25" ry="40" fill="#333"/>
  <ellipse cx="220" cy="220" rx="25" ry="40" fill="#333"/>
  <path d="M165 200L165 240" stroke="#4A9EFF" stroke-width="4"/>
  <path d="M235 200L235 240" stroke="#4A9EFF" stroke-width="4"/>
  
  <style>
    @media (prefers-color-scheme: dark) {
      circle[fill="#FFD700"] { fill: #FFD700; }
      path[stroke="#888"] { stroke: #AAA; }
    }
  </style>
</svg>